<svg xmlns="http://www.w3.org/2000/svg" viewBox="0 0 59.77 60"><defs><style>.cls-1{fill:#cecece;}</style></defs><title>new-label</title><g id="Layer_2" data-name="Layer 2"><g id="Layer_1-2" data-name="Layer 1"><path class="cls-1" d="M29.89,60A30,30,0,1,1,59.77,30,30,30,0,0,1,29.89,60Zm0-57A27,27,0,1,0,56.78,30,27,27,0,0,0,29.89,3ZM19.77,24.69h2.4v10.5h-1.8l-4.05-5.7v5.7h-2.4V24.69h1.8l4,5.7Zm7.35,8.19h4.2v2.31h-6.6V24.69h6.52V27H27.12v1.74h3.75V31H27.12Zm8.44,2.31-2.89-10.5h2.52L37,32l2-7.35H41L43,32l1.82-7.35h2.52l-2.9,10.5H41.71L40,29l-1.71,6.19Z"/></g></g></svg>